<?xml version="1.0" encoding="UTF-8"?>
<svg width="512" height="512" version="1.1" xmlns="http://www.w3.org/2000/svg" xmlns:cc="http://creativecommons.org/ns#" xmlns:dc="http://purl.org/dc/elements/1.1/" xmlns:rdf="http://www.w3.org/1999/02/22-rdf-syntax-ns#">
 <metadata>
  <rdf:RDF>
   <cc:Work rdf:about="">
    <dc:format>image/svg+xml</dc:format>
    <dc:type rdf:resource="http://purl.org/dc/dcmitype/StillImage"/>
    <dc:title/>
   </cc:Work>
  </rdf:RDF>
 </metadata>
 <path d="m248.19 470.66-49.266-28.441v-55.98c1.759-0.70807 3.4666-1.5154 5.1311-2.491 27.052-15.725 29.892-61.369 6.3085-101.97-23.579-40.587-64.636-60.762-91.699-45.048-27.071 15.712-29.9 61.38-6.3149 101.98 3.473 5.9689 7.3209 11.483 11.44 16.513v43.636l-57.321-33.092v-209.99l-20.994-12.12c-17.934 33.522-28.26 71.719-28.26 112.39 0 129.25 102.72 234.46 230.98 238.6v-23.98z" fill="#209466"/>
 <path d="m466.56 143.73-21.037 12.152v66.419l-39.511 22.415c-2.8787-3.3545-6.2268-6.2332-10.1-8.4855-27.065-15.718-68.133 4.455-91.712 45.042-23.566 40.606-20.756 86.255 6.3005 101.98 27.078 15.714 68.128-4.4486 91.712-45.048 5.0942-8.7723 8.9549-17.77 11.597-26.669l31.714-18.366v72.594l-181.4 104.73v24.137c128.12-4.2932 230.66-109.44 230.66-238.59 0-40.643-10.307-78.821-28.223-112.31z" fill="#163b64"/>
 <path d="m53.777 129.83 21.043 12.142 57.52-33.209 39.167 23.01c-1.4657 4.1703-2.2847 8.5092-2.2985 12.99-0.0799 31.298 37.924 56.777 84.863 56.904 46.949 0.1059 85.078-25.152 85.167-56.446 0.0694-31.307-37.917-56.776-84.869-56.9-10.144-0.02565-19.867 1.1301-28.895 3.2918l-31.763-18.282 62.868-36.297 181.4 104.73 20.903-12.068c-67.778-108.81-210.11-145.03-321.95-80.462-35.198 20.322-63.107 48.336-83.153 80.598z" fill="#c42028"/>
</svg>
